# xmcd
#
# Track frame offsets:
#	150
#	11314
#	23314
#	37158
#	50276
#	58390
#	63396
#	76964
#	83856
#	90731
#	98858
#	104845
#	112120
#	117763
#	145089
#	156640
#	170176
#	183401
#	194763
#	206801
#	222646
#	232207
#	245799
#	255060
#	267605
#	281565
#
# Disc length: 3959 seconds
#
# Revision: 1
# Processed by: cddbd v1.5.2PL0 Copyright (c) Steve Scherf et al.
# Submitted via: audiograbber 1.83.01
#
DISCID=910f751a
DTITLE=Burl Ives - Eight classic albums CD 2
DYEAR=1900
DGENRE=Country
TTITLE0=The little white duck
TTITLE1=The little engine that could
TTITLE2=Mr. Froggy went A-curtin
TTITLE3=The donut song
TTITLE4=Two little owls
TTITLE5=Fooba wooba John
TTITLE6=The grey goose
TTITLE7=The whale
TTITLE8=Buckeye Jim
TTITLE9=The snow took the measles
TTITLE10=The goat and the train
TTITLE11=Mr. Rabbit
TTITLE12=The tailor and the mouse
TTITLE13=Mother goose song
TTITLE14=Mocking bird hill
TTITLE15=The long black veil
TTITLE16=Delia
TTITLE17=Forty hour week
TTITLE18=I walk the line
TTITLE19=Royal telephone
TTITLE20=Shanghied
TTITLE21=Lenora, let your hair hang down
TTITLE22=A little bitty tear
TTITLE23=Oh, my side
TTITLE24=Mama don't want no peas an' rice an' coconut oil
TTITLE25=The almighty dollar bill
EXTD=
EXTT0=
EXTT1=
EXTT2=
EXTT3=
EXTT4=
EXTT5=
EXTT6=
EXTT7=
EXTT8=
EXTT9=
EXTT10=
EXTT11=
EXTT12=
EXTT13=
EXTT14=
EXTT15=
EXTT16=
EXTT17=
EXTT18=
EXTT19=
EXTT20=
EXTT21=
EXTT22=
EXTT23=
EXTT24=
EXTT25=
PLAYORDER=
